<svg xmlns="http://www.w3.org/2000/svg" aria-hidden="true" style="position:absolute;width:0;height:0;overflow:hidden">
  <defs>
    <symbol id="icon-logo" viewBox="0 0 45 32">
      <path d="M30.403 20.79c-.01.001-.032-.163-.079-.48a11.706 11.706 0 0 0-.279-1.385 4.678 4.678 0 0 0-.258-.729 1.956 1.956 0 0 0-.325-.513.805.805 0 0 0-.388-.244.779.779 0 0 0-.473.053c-.217.089-.41.24-.603.42a6.163 6.163 0 0 0-.734.859 4.288 4.288 0 0 0-.461.851c-.142.333-.261.674-.385 1.044-.223.662-.468 1.469-.832 2.181a4.23 4.23 0 0 0-.239.622c-.073.225-.146.465-.24.699a1.877 1.877 0 0 1-.347.593.792.792 0 0 1-.595.267c-5.746.008-13.088.006-21.501-.006a.825.825 0 0 1-.357-.084 1.051 1.051 0 0 1-.295-.221 2.283 2.283 0 0 1-.434-.707 6.19 6.19 0 0 1-.302-.946 12.455 12.455 0 0 1-.207-1.066 22.008 22.008 0 0 1-.208-1.983 27.961 27.961 0 0 1-.034-.653l-.006-.184-.001-.049.021-.076v-.004l.657-.848-.006.017-.016.048-.002-.019-.006-.07a9.625 9.625 0 0 1-.019-1.067 5.7 5.7 0 0 1 .111-.972c.032-.151.075-.303.134-.454a1.51 1.51 0 0 1 .217-.387c.228-.285.504-.521.794-.722.329-.229.679-.42 1.037-.589.762-.359 1.563-.625 2.378-.849a24.619 24.619 0 0 1 2.716-.582l.179-.027.047-.007-.06.042h.004a36.67 36.67 0 0 1 1.799-2.43c.536-.642 1.117-1.266 1.772-1.817a8.644 8.644 0 0 1 1.896-1.225 8.981 8.981 0 0 1 2.144-.673l.079-.015c1.167-.21 2.344-.313 3.503-.38a66.03 66.03 0 0 1 4.205-.097c3.024.017 5.988.173 8.851.416 1.27.108 2.515.281 3.729.558 1.14.258 2.261.593 3.259 1.188.201.121.381.267.542.426.181.178.341.372.486.572.338.467.605.974.834 1.482.264.585.483 1.183.675 1.778.203.628.377 1.26.532 1.886a41.73 41.73 0 0 1 .673 3.331c.058.355.111.709.159 1.061l.017.337.172.098a.934.934 0 0 1 .312.385.93.93 0 0 1 0 .501l-.063.258-.349 1.282c-.14.174-.244.38-.322.596a3.946 3.946 0 0 0-.165.684c-.141.506-.215.977-.387 1.493-.075-.587-.103-1.179-.137-1.736.018-.581.033-1.134-.012-1.682a4.564 4.564 0 0 0-.108-.714 2.141 2.141 0 0 0-.215-.567 1.168 1.168 0 0 0-.343-.384 1.179 1.179 0 0 0-.516-.189.898.898 0 0 0-.571.128c-.205.12-.374.305-.523.503-.18.242-.327.51-.455.782a9.148 9.148 0 0 0-.372.93 16.075 16.075 0 0 0-.487 1.78c-.043.2-.083.397-.119.593l-.029.166-.007.044-.001.002-.001.003v.001c-.022.564-.042 1.104-.059 1.622-5.114.141-8.003.181-8.004.141s2.884-.141 7.897-.246l-.059-1.534v-.004a.15.15 0 0 0 .002-.02l.007-.045.028-.17c.034-.199.072-.399.114-.602.121-.586.274-1.199.477-1.812.106-.318.227-.642.374-.96a4.81 4.81 0 0 1 .475-.831c.157-.217.351-.428.599-.58.218-.133.483-.201.75-.171.223.026.447.1.644.232.18.123.326.289.434.475.118.202.196.421.251.643.062.25.098.505.121.76.05.57.039 1.134.024 1.716-.064.55-.142 1.128-.174 1.686.055-.488.027-.968.053-1.504a4.21 4.21 0 0 1 .176-.743c.075-.224.186-.443.343-.635l.309-1.216.059-.245c.017-.133.045-.245.01-.31-.015-.07-.105-.136-.202-.228l-.234-.21-.087-.454a40.575 40.575 0 0 0-.162-1.05 41.613 41.613 0 0 0-.681-3.299 27.232 27.232 0 0 0-.532-1.858 16.391 16.391 0 0 0-.666-1.735 8.024 8.024 0 0 0-.799-1.411 4.13 4.13 0 0 0-.445-.521 2.513 2.513 0 0 0-.468-.367c-.94-.562-2.022-.878-3.145-1.133a26.693 26.693 0 0 0-3.674-.541 112.984 112.984 0 0 0-8.818-.403 66.567 66.567 0 0 0-4.178.099c-1.151.068-2.311.169-3.452.375l-.076.014a8.602 8.602 0 0 0-2.042.64 8.252 8.252 0 0 0-1.802 1.164c-.629.528-1.192 1.134-1.72 1.763-.682.8-1.314 1.645-1.925 2.488h-.004l-.084.045-.045.006-.174.026a24.818 24.818 0 0 0-2.671.569c-.801.219-1.58.476-2.312.82a6.756 6.756 0 0 0-.978.552 3.314 3.314 0 0 0-.708.638 1.128 1.128 0 0 0-.157.283 2.483 2.483 0 0 0-.115.387 5.256 5.256 0 0 0-.104.901 9.222 9.222 0 0 0 .016 1.021l.005.065.001.017-.015.057a.133.133 0 0 0-.005.019l-.658.862v.004l.021-.052.001.047.006.18c.008.215.018.429.032.643.041.659.102 1.309.199 1.948.053.35.116.695.198 1.033.074.308.161.606.279.887.097.225.203.436.354.59.059.06.121.112.186.143a.434.434 0 0 0 .188.046c8.413.04 15.755.083 21.5.126a.532.532 0 0 0 .222-.046.607.607 0 0 0 .184-.135c.132-.135.221-.321.301-.51.091-.218.164-.453.241-.68.074-.222.15-.443.26-.655.358-.681.609-1.477.842-2.141.129-.369.255-.715.404-1.054.14-.319.295-.616.495-.883.244-.326.491-.619.769-.873.201-.185.415-.344.659-.441a.93.93 0 0 1 .569-.051c.187.05.34.166.454.295.153.172.258.371.337.555.113.26.189.524.246.754.142.576.203 1.118.23 1.405.03.32.033.486.025.487z"/>
      <path d="m27.204 19.095.001-.003.003-.002.011-.004a.606.606 0 0 1 .193-.004c.126.008.307.029.536.076.394.081.991.251 1.607.611.279.163.57.372.843.635.263.254.509.562.709.922.206.373.36.795.448 1.252.099.513.116 1.054.065 1.613-.08.883-.229 1.85-.562 2.786a5.318 5.318 0 0 1-.603 1.228 3.8 3.8 0 0 1-.224.298 2.536 2.536 0 0 1-.786.643l-.355.117a519.806 519.806 0 0 1-5.082-.133c-.937-.401-1.604-1.001-1.992-1.649-.386-.663-.479-1.341-.502-1.735-.024-.424.02-.649.038-.649.031 0 .036.226.103.634.062.376.198 1.024.584 1.612.369.58.983 1.097 1.839 1.449 1.445.009 3.127.029 4.944.058l.255-.096c.234-.116.439-.306.623-.527.07-.084.137-.172.199-.263.235-.346.411-.737.555-1.131.321-.884.472-1.818.564-2.681a5.5 5.5 0 0 0-.033-1.506 3.749 3.749 0 0 0-1.006-2.025 4.366 4.366 0 0 0-.764-.627 6.055 6.055 0 0 0-1.506-.689c-.218-.068-.391-.112-.511-.143a3.234 3.234 0 0 1-.144-.04.186.186 0 0 1-.047-.021l-.002-.003v-.003z"/>
      <path d="m26.055 22.315.494-1.207.459 1.836a.07.07 0 0 0 .096.047l.223-.096a.07.07 0 0 0 .038-.041l.741-2.1.949.419-1.052 2.073a.066.066 0 0 0-.008.032c0 .019.008.037.021.05l.096.096a.07.07 0 0 0 .078.015l1.773-.764.256 1.221-1.816.4a.068.068 0 0 0-.051.046l-.096.287a.07.07 0 0 0 .03.082l1.763 1.052-.562 1.068-1.465-1.526a.073.073 0 0 0-.051-.022.065.065 0 0 0-.037.011l-.255.16a.071.071 0 0 0-.033.059l.002.015.465 2.231-.906.192-.154-2.346a.07.07 0 0 0-.027-.051l-.255-.192a.07.07 0 0 0-.102.02l-.999 1.695-.669-.948 1.298-1.267a.071.071 0 0 0 .021-.05v-.224a.07.07 0 0 0-.068-.07l-.963-.029.332-1.134.656.399c.01.006.023.01.036.01a.071.071 0 0 0 .06-.034l.192-.32a.072.072 0 0 0 .01-.036.06.06 0 0 0-.007-.03l-.511-1.086zm-.128.003.495 1.052-.136.227-.674-.41a.073.073 0 0 0-.037-.01.069.069 0 0 0-.067.05l-.383 1.309-.002.009a.07.07 0 0 0 .058.08l.009.001.986.03v.126l-1.32 1.289a.071.071 0 0 0-.021.05c0 .015.005.029.013.041l.766 1.086a.07.07 0 0 0 .117-.004l1.014-1.721.167.125.158 2.395v.005a.07.07 0 0 0 .079.06l.005-.001 1.054-.224a.07.07 0 0 0 .054-.083l-.469-2.251.166-.104L29.452 27a.07.07 0 0 0 .113-.015l.639-1.213a.07.07 0 0 0-.026-.093l-1.772-1.057.065-.196 1.845-.407a.07.07 0 0 0 .053-.084l-.287-1.373a.07.07 0 0 0-.097-.05l-1.808.779-.026-.026 1.063-2.094.001-.002a.069.069 0 0 0-.033-.093l-.002-.001-1.086-.479-.002-.001a.07.07 0 0 0-.091.039l-.001.003-.756 2.142-.119.051-.491-1.964a.07.07 0 0 0-.068-.053.072.072 0 0 0-.065.043l-.575 1.405zM30.908 13.507c-.041.011-.184-.378-.4-1.076a9.998 9.998 0 0 1 .363-2.369c.157-.535.402-1.135.813-1.661a2.819 2.819 0 0 1 1.234-.92c.205-.073.419-.12.637-.142.317-.032.633-.01.93.049a.79.79 0 0 0 .019.003l.071.01.26.038c.293.044.579.091.858.14.367.064.715.132 1.054.207.335.074.645.15.948.251.321.107.627.24.887.358.355.161.679.323.941.46.316.165.569.308.741.413.095.058.167.106.215.142a.564.564 0 0 1 .055.046c.006.006.01.011.012.016l.001.008v.002l-.002.001-.007.004a.066.066 0 0 1-.02 0 .429.429 0 0 1-.07-.016 3.892 3.892 0 0 1-.242-.085c-.194-.074-.45-.18-.783-.318-.264-.109-.611-.253-.961-.388a10.173 10.173 0 0 0-.873-.305c-.29-.084-.588-.146-.922-.21a33.89 33.89 0 0 0-1.043-.18 49.156 49.156 0 0 0-1.11-.162l-.07-.009a.11.11 0 0 0-.018-.002l-.009-.001h-.003a3.022 3.022 0 0 0-.817-.042 2.194 2.194 0 0 0-.539.117c-.423.148-.783.441-1.057.774-.375.457-.616 1.011-.787 1.513-.287.832-.413 1.688-.487 2.239.148.677.216 1.085.175 1.095zM30.557 13.347c.003.185.003.364 0 .538.32 1.482.409 2.613.445 3.668s.02 2.034.129 3.202c-.072-1.17-.018-2.145-.016-3.204s-.051-2.206-.337-3.711a37.52 37.52 0 0 0-.222-.493z"/>
      <path d="M34.666 7.651c.161.266.327.541.497.829.554 1.841 1.221 4.064 1.526 6.628s.246 5.458-.639 8.649c.813-3.207.795-6.091.421-8.62s-1.104-4.711-1.726-6.523c-.03-.332-.057-.654-.078-.964zM38.05 8.296c.063.255.123.509.18.761.911 1.845 1.675 3.636 2.22 5.253s.869 3.059.899 4.21c.027-1.155-.243-2.617-.737-4.262s-1.21-3.467-2.075-5.347c-.16-.205-.323-.41-.487-.615zM37.773 25.769c.02-.004.076.171.162.5.07.25.188.671.342 1.105.114.319.269.733.501 1.081.082.122.174.242.285.325.044.033.089.06.135.076a.341.341 0 0 0 .125.02c.817-.032 1.744-.066 2.757-.099.012 0 .03-.006.048-.015a.324.324 0 0 0 .075-.059c.074-.072.131-.174.19-.288.161-.323.257-.685.345-1.076.099-.446.168-.909.212-1.39.04-.432.062-.876.039-1.319a31.601 31.601 0 0 0-.094-1.422 16.42 16.42 0 0 0-.069-.622 9.785 9.785 0 0 0-.167-.939 5.044 5.044 0 0 0-.203-.679 2.442 2.442 0 0 0-.267-.525 1.055 1.055 0 0 0-.32-.313.653.653 0 0 0-.757.057 1.396 1.396 0 0 0-.33.42c-.248.448-.364.977-.453 1.474a13.623 13.623 0 0 0-.179 1.791 15.57 15.57 0 0 0 .007 1.503c.023.415.133.817.248 1.158.141.415.315.791.461 1.086.415.718.637 1.132.61 1.152-.028.018-.302-.361-.771-1.058a7.802 7.802 0 0 1-.537-1.093 4.487 4.487 0 0 1-.31-1.222c-.044-.48-.06-.985-.052-1.535a13.19 13.19 0 0 1 .146-1.844c.079-.513.199-1.082.473-1.603.101-.194.237-.389.427-.547a1.072 1.072 0 0 1 1.227-.101c.189.112.34.266.456.433.136.193.237.402.319.614.093.24.164.486.222.735.076.322.132.649.176.98.028.214.051.428.07.639.045.487.07.973.09 1.442.021.471-.005.934-.05 1.379-.05.496-.127.975-.236 1.439-.093.402-.206.794-.393 1.16a1.435 1.435 0 0 1-.267.383.687.687 0 0 1-.171.125.49.49 0 0 1-.209.053c-1.014.014-1.941.023-2.759.029a.608.608 0 0 1-.238-.046.787.787 0 0 1-.207-.125 1.527 1.527 0 0 1-.334-.407c-.238-.395-.377-.828-.473-1.16a9.622 9.622 0 0 1-.259-1.145c-.048-.338-.065-.521-.044-.525z"/>
      <path d="m40.438 24.128.467.467-.03.391-.412.824a.03.03 0 0 0-.003.023l.192 1.054a.037.037 0 0 0 .07.007l.386-.992.087 1.683c.001.014.01.027.023.032l.479.192a.036.036 0 0 0 .05-.033v-.003l-.147-1.906.717 1.32a.031.031 0 0 0 .009.011.036.036 0 0 0 .051-.005.075.075 0 0 0 .007-.012l.351-1.086a.036.036 0 0 0 .002-.011.038.038 0 0 0-.008-.023l-.919-1.164.8-.119a.036.036 0 0 0 .031-.033l.096-1.245v-.008a.036.036 0 0 0-.041-.031l-.008.002-.94.352.73-1.613a.035.035 0 0 0-.002-.033l-.479-.83a.035.035 0 0 0-.031-.018.038.038 0 0 0-.035.025l-.484 1.56.108-1.675c0-.005 0-.01-.002-.015a.036.036 0 0 0-.046-.022l-.013.008-.543.511a.036.036 0 0 0-.011.026v1.565l-.28-.316a.037.037 0 0 0-.063.019l-.167 1.091zm.061-.02.156-1.014.292.33a.034.034 0 0 0 .027.012c.02 0 .036-.016.036-.036v-1.645l.464-.437-.122 1.888v.002c0 .02.016.036.036.036.016 0 .03-.011.035-.025l.55-1.773.428.742-.759 1.675a.032.032 0 0 0-.003.014.037.037 0 0 0 .035.038l.014-.002.968-.363-.089 1.16-.834.123a.037.037 0 0 0-.023.059l.946 1.198-.319.987-.758-1.395a.036.036 0 0 0-.015-.015.035.035 0 0 0-.049.015.03.03 0 0 0-.004.02l.155 2.017-.403-.161-.095-1.829a.036.036 0 0 0-.036-.034.037.037 0 0 0-.034.023l-.4 1.03-.166-.915.41-.819.004-.013.032-.415v-.003a.036.036 0 0 0-.011-.026l-.479-.479zM23.723 25.29c.1-.008.165.512.362 1.226a4.704 4.704 0 0 0 .39 1.01c.176.315.393.561.625.74.253.198.534.319.716.397.191.081.307.13.301.172-.005.031-.532.17-1.23-.259a2.326 2.326 0 0 1-.825-.91 3.65 3.65 0 0 1-.351-1.066c-.137-.776-.054-1.304.012-1.309zM35.277 15.428c-.013-.118.241-.243.568-.279s.602.03.615.148-.241.243-.568.279c-.327.036-.602-.03-.615-.148zM39.682 15.034c0-.119.206-.215.46-.215s.46.096.46.215-.206.215-.46.215-.46-.096-.46-.215zM9.831 12.93c-.003-.042 2.145-.297 5.641-.525 3.346-.219 8.497-.449 13.727.14.032-.291.067-.584.107-.878.093-.687.211-1.358.375-2.015.267-.782.6-1.537 1.106-2.199-8.964.239-15.693.346-15.695.216s6.754-.247 15.866-.31c-.412.711-.665 1.534-.865 2.408-.212.68-.381 1.379-.528 2.099-.063.308-.121.616-.176.922-5.216-.537-10.504-.297-13.851-.124-3.541.184-5.7.34-5.706.264zM18.905 19.308c-.022-.109 2.854-.759 6.654-1.523.199-.547.444-1.121.78-1.653l.088-.134c.267-.391.589-.752 1.002-1.002.16-.096.335-.169.52-.21.171-.038.346-.045.516-.021.173.024.337.078.486.152.164.081.31.184.439.296.316.274.552.604.735.924.243.422.413.855.536 1.252.564 1.811.284 2.972.276 2.971-.114-.004.033-1.16-.582-2.869a6.23 6.23 0 0 0-.549-1.165c-.181-.291-.399-.585-.674-.81a1.705 1.705 0 0 0-.36-.233 1.075 1.075 0 0 0-.732-.088 1.383 1.383 0 0 0-.394.165c-.338.201-.612.521-.867.883l-.094.135c-.363.536-.646 1.124-.89 1.69-3.941.815-6.869 1.348-6.891 1.239zM38.696 23.713c-.047-.009-.013-.459.103-1.205.113-.722.318-1.812.642-2.968a13.88 13.88 0 0 1 .515-1.524c.158-.381.335-.744.58-1.07.094-.125.201-.244.328-.347.106-.087.231-.159.373-.201a.827.827 0 0 1 .41-.011c.154.037.285.109.393.191.147.111.266.241.364.367.142.181.256.369.35.543.537.986.632 1.681.611 1.688-.094.036-.297-.623-.881-1.529a4.062 4.062 0 0 0-.352-.478 1.718 1.718 0 0 0-.311-.287.702.702 0 0 0-.256-.115.445.445 0 0 0-.214.013.688.688 0 0 0-.228.134 1.56 1.56 0 0 0-.251.28c-.209.286-.365.618-.519.986l-.06.147c-.177.444-.323.899-.453 1.328-.329 1.089-.611 2.242-.782 2.905-.187.728-.312 1.161-.363 1.152zM4.11 22.727c.001-.119 5.838-.088 13.707.049-.263-1.037-.55-2.145-.933-3.207a16.706 16.706 0 0 0-.478-1.398 13.825 13.825 0 0 0-.89-1.858 60.817 60.817 0 0 0-9.615-.043c-.887 1.894-1.305 3.452-1.524 4.64-.212 1.152-.221 1.819-.268 1.818-.02-.001-.074-.671.105-1.863.184-1.221.601-2.856 1.523-4.83a61.057 61.057 0 0 1 9.979-.043c.382.624.721 1.283 1.018 1.973.211.489.396.983.559 1.477.316 1.175.531 2.385.725 3.499-8.044-.014-13.91-.095-13.908-.214zM1.546 18.256c.071-.095.526.122 1.016.485s.83.735.76.83-.526-.122-1.016-.485-.83-.735-.76-.83zM2.664 15.56c.047-.116.976.235 2.233.813l-.316.555c-.182.317-.356.615-.521.892a20.27 20.27 0 0 1-1.236-.085c-.391.163-.661.242-.686.192s.204-.219.629-.465c.31-.001.69.016 1.131.046a32.741 32.741 0 0 1 .741-1.052c-1.143-.398-2.023-.779-1.975-.896z"/>
      <path d="M25.217 15.494c.015.135-3.225.512-7.391.908l.616.937.151.231c.974-.111 1.887-.211 2.755-.301.553.121 1.079.238 1.571.349.759-.087 1.361-.156 1.956-.227.15-1.172.288-1.904.341-1.896s-.006.755-.185 2.049c-.659.133-1.241.251-2.121.431-.496-.095-1.027-.198-1.585-.308-.911.076-1.874.15-2.899.225l-.16-.315-.65-1.279c4.308-.571 7.585-.937 7.6-.802zM1.424 23.8h.003l.004.002a.39.39 0 0 1 .023.05c.011.034.024.086.038.152.028.127.064.313.111.546.08.394.21 1.011.42 1.655.091.279.203.581.344.878.122.256.268.519.451.756.156.2.341.389.559.52.199.121.434.197.675.205a236.631 236.631 0 0 1 4.668.214c.13.01.269-.031.395-.093.154-.076.293-.193.418-.315.329-.322.584-.728.776-1.054.246-.42.445-.831.569-1.084.074-.153.133-.273.176-.355a1.51 1.51 0 0 1 .056-.097.139.139 0 0 1 .02-.024.018.018 0 0 1 .008-.005h.006l.001.001.004.003a.046.046 0 0 1 .003.009.144.144 0 0 1 .001.031.908.908 0 0 1-.017.112 3.87 3.87 0 0 1-.107.386 8.34 8.34 0 0 1-.474 1.157c-.174.35-.418.787-.77 1.166a2.01 2.01 0 0 1-.495.399 1.143 1.143 0 0 1-.586.151 240.679 240.679 0 0 1-4.669-.18 1.802 1.802 0 0 1-.874-.279 2.445 2.445 0 0 1-.655-.633 4.292 4.292 0 0 1-.469-.842 7.13 7.13 0 0 1-.321-.936 9.92 9.92 0 0 1-.301-1.72 5.978 5.978 0 0 1-.024-.563c.001-.069.005-.122.011-.158a.217.217 0 0 1 .01-.042.036.036 0 0 1 .006-.011l.003-.003.003-.001z"/>
      <path d="m4.559 25.804.302-.24.328.346-.204.519a.03.03 0 0 0-.003.013c0 .011.005.02.012.027l.86.763a.034.034 0 0 0 .024.009c.016 0 .03-.011.035-.025l.234-.741.579-.071.365.74c.006.012.018.02.033.02a.035.035 0 0 0 .018-.005l1.188-.686a.035.035 0 0 0 .018-.031.037.037 0 0 0-.013-.028l-.341-.292 1.074-.098a.04.04 0 0 0 .029-.019l.425-.831a.047.047 0 0 0 .004-.017.036.036 0 0 0-.036-.036l-5.404-.01a.036.036 0 0 0-.036.036c0 .008.003.015.007.021l.449.628zm.007-.05-.408-.57 5.275.009-.389.76-1.139.104a.036.036 0 0 0-.033.036c0 .011.005.021.013.028l.367.314-1.11.641-.36-.728a.036.036 0 0 0-.033-.02h-.005l-.628.077a.037.037 0 0 0-.03.025l-.225.71-.799-.709.203-.517a.03.03 0 0 0 .003-.013.037.037 0 0 0-.01-.025l-.367-.386a.036.036 0 0 0-.049-.003l-.328.261zM28.89 12.907a9.8 9.8 0 0 0-.324.247c-1.565.232-2.56.53-3.218.867-.704.36-1.037.771-1.265 1.219.166-.472.456-.952 1.167-1.393.66-.409 1.672-.775 3.252-1.072l.388.132zM40.696 9.549l-.199.339.641 3.372c-3.453-.253-6.732.257-10.163.707 3.511-.373 6.827-.803 10.309-.437l.014.001a.13.13 0 0 0 .126-.134l-.001-.016v.001l-.436-3.57-.293-.262zM1.921 22.804c0-.119 5.186-.207 11.576-.197s11.576.114 11.575.233c0 .119-5.186.207-11.576.197s-11.576-.114-11.575-.233zM16.201 18.033l-.357.321-10.372-.001-.508 1.659 11.732.001-11.875.213H4.81a.108.108 0 0 1-.095-.121l.002-.012.391-2.005a.209.209 0 0 1 .204-.162h.001l10.525-.206.364.314zM22.881 21.107c0 .605-.498 1.096-1.113 1.096s-1.113-.491-1.113-1.096c0-.605.498-1.096 1.113-1.096s1.113.491 1.113 1.096zM3.052 21.107c0 .547-.364.99-.813.99s-.813-.443-.813-.99c0-.547.364-.99.813-.99s.813.443.813.99zM32.036 23.688c.004-.119 1.566-.167 3.488-.109s3.479.202 3.475.321-1.566.167-3.488.109c-1.922-.059-3.479-.202-3.475-.321z"/>
    </symbol>
    <symbol id="icon-chevron-down" viewBox="0 0 32 32">
      <path stroke-linecap="round" stroke-linejoin="round" stroke-width="3.2" d="m8 12 8 8 8-8"/>
    </symbol>
    <symbol id="icon-chevron-up" viewBox="0 0 32 32">
      <path stroke-linecap="round" stroke-linejoin="round" stroke-width="3.2" d="m8 20 8-8 8 8"/>
    </symbol>
    <symbol id="icon-heart" viewBox="0 0 32 32">
      <path stroke-linecap="round" stroke-linejoin="round" stroke-width="2.667" d="M27.787 6.147a7.345 7.345 0 0 0-5.187-2.15 7.33 7.33 0 0 0-5.186 2.15L16.001 7.56l-1.413-1.413a7.333 7.333 0 0 0-10.374 0 7.333 7.333 0 0 0 0 10.374l11.787 11.787 11.787-11.787a7.345 7.345 0 0 0 2.149-5.187 7.33 7.33 0 0 0-2.149-5.187z"/>
    </symbol>
    <symbol id="icon-close" viewBox="0 0 32 32">
      <path stroke-linecap="round" stroke-linejoin="round" stroke-width="2.4" d="M24 8 8 24M8 8l16 16"/>
    </symbol>
  </defs>
</svg>